# xmcd CD Database Entry
#
# Track frame offsets:
# 150
# 15271
# 31078
# 50165
# 68105
# 85503
# 95449
# 109170
# 124594
# 146351
# 159349
# 174120
#
# Disc length: 2540 seconds
#
# Revision: 3
# Processed by: cddbd v1.4PL0 Copyright (c) Steve Scherf et al.
# Submitted via: tcd 2.0b
#
DISCID=8509ea0c
DTITLE=John Ferullo - Real Good Day
DYEAR=1900
DGENRE=
TTITLE0=I Like the Sound
TTITLE1=Twists and Turns
TTITLE2=The Place Where the River Falls
TTITLE3=Harbor Town
TTITLE4='63 Split Window Coupe
TTITLE5=Real Good Day
TTITLE6=Gone Fishin'
TTITLE7=Speed of Light
TTITLE8=Harvest Ball
TTITLE9=Cats
TTITLE10=No Place This Side of Heaven
TTITLE11=Angels Passing By
EXTD=
EXTT0=
EXTT1=
EXTT2=
EXTT3=
EXTT4=
EXTT5=
EXTT6=
EXTT7=
EXTT8=
EXTT9=
EXTT10=
EXTT11=
PLAYORDER=
